<svg width="66" height="66" viewBox="0 0 66 66" fill="none" xmlns="http://www.w3.org/2000/svg">
<rect width="66" height="66" rx="33" fill="#202020" fill-opacity="0.8"/>
<path d="M46 33C46 34.1982 45.896 35.1667 44.6978 35.1667H35.1667V44.6978C35.1667 45.8938 34.1982 46 33 46C31.8018 46 30.8333 45.8938 30.8333 44.6978V35.1667H21.3022C20.1062 35.1667 20 34.1982 20 33C20 31.8018 20.1062 30.8333 21.3022 30.8333H30.8333V21.3022C30.8333 20.104 31.8018 20 33 20C34.1982 20 35.1667 20.104 35.1667 21.3022V30.8333H44.6978C45.896 30.8333 46 31.8018 46 33Z" fill="#FFC703" fill-opacity="0.8"/>
</svg>
