<svg width="6" height="8" viewBox="0 0 6 8" fill="none" xmlns="http://www.w3.org/2000/svg">
<path d="M5.62317 4.41606C5.67434 4.38083 5.71619 4.33368 5.74509 4.27868C5.774 4.22368 5.78911 4.16248 5.78911 4.10034C5.78911 4.03821 5.774 3.977 5.74509 3.922C5.71619 3.867 5.67434 3.81986 5.62317 3.78462L0.629983 0.3278C0.572391 0.287787 0.504935 0.264323 0.434944 0.259956C0.364952 0.25559 0.295103 0.270487 0.232984 0.303031C0.170865 0.335575 0.118853 0.384521 0.0825984 0.44455C0.046344 0.504578 0.0272338 0.573395 0.0273442 0.643523L0.0273442 7.55716C0.0276332 7.62712 0.0469892 7.69569 0.0833305 7.75547C0.119672 7.81526 0.171623 7.86401 0.233598 7.89648C0.295574 7.92895 0.365227 7.94391 0.435069 7.93975C0.50491 7.93559 0.572297 7.91247 0.629983 7.87288L5.62317 4.41606Z" fill="white"/>
</svg>
