<svg width="31" height="31" viewBox="0 0 31 31" fill="none" xmlns="http://www.w3.org/2000/svg">
<path d="M4.42871 4.42857C4.42871 3.25404 4.89529 2.12762 5.72581 1.2971C6.55633 0.46658 7.68275 0 8.85728 0C10.0318 0 11.1582 0.46658 11.9888 1.2971C12.8193 2.12762 13.2859 3.25404 13.2859 4.42857C13.2859 5.6031 12.8193 6.72953 11.9888 7.56004C11.1582 8.39056 10.0318 8.85714 8.85728 8.85714C7.68275 8.85714 6.55633 8.39056 5.72581 7.56004C4.89529 6.72953 4.42871 5.6031 4.42871 4.42857Z" fill="white"/>
<path d="M19.4391 7.93623L19.5321 8.00709C20.4716 8.70349 21.6485 9.00001 22.8058 8.83193C23.9631 8.66385 25.007 8.04482 25.7096 7.10994C26.4122 6.17505 26.7164 5.0002 26.556 3.8418C26.3956 2.68339 25.7834 1.63546 24.8532 0.926714C23.923 0.217967 22.7502 -0.0940607 21.5907 0.0587262C20.4313 0.211513 19.3793 0.81671 18.6645 1.74224C17.9496 2.66778 17.6298 3.8385 17.775 4.99893C17.9201 6.15935 18.5183 7.21527 19.4391 7.93623Z" fill="white"/>
<path d="M11.6649 11.0717C11.943 10.545 12.3245 10.0799 12.7865 9.70412C13.2486 9.32832 13.7816 9.04958 14.3539 8.88456C14.9261 8.71955 15.5258 8.67166 16.117 8.74374C16.7082 8.81583 17.2787 9.00643 17.7946 9.30412C18.3104 9.60182 18.7609 10.0005 19.119 10.4763C19.4772 10.9521 19.7358 11.4953 19.8792 12.0733C20.0226 12.6514 20.0479 13.2524 19.9537 13.8405C19.8595 14.4285 19.6476 14.9915 19.3307 15.4958C18.7212 16.466 17.7594 17.1621 16.6473 17.438C15.5353 17.7139 14.3596 17.5481 13.3673 16.9754C12.3749 16.4027 11.6432 15.4677 11.3257 14.3668C11.0083 13.2659 11.1298 12.0848 11.6649 11.0717Z" fill="white"/>
<path d="M3.32143 11.0713H9.23357C8.99 11.7644 8.85714 12.5106 8.85714 13.2856C8.85714 14.9861 9.49707 16.5406 10.5489 17.7141H9.96428C8.82268 17.714 7.70892 18.0666 6.77546 18.7238C5.84199 19.381 5.13444 20.3106 4.74964 21.3854C4.00638 21.0869 3.31046 20.6818 2.68371 20.1831C1.01857 18.8434 0 16.8639 0 14.3927C0 13.5118 0.349935 12.667 0.972824 12.0441C1.59571 11.4212 2.44053 11.0713 3.32143 11.0713Z" fill="white"/>
<path d="M21.0357 17.7141C23.4382 17.7141 25.4842 19.2442 26.2482 21.3854C27.001 21.0776 27.6985 20.6769 28.3163 20.1831C29.9815 18.8434 31 16.8639 31 14.3927C31 13.5118 30.6501 12.667 30.0272 12.0441C29.4043 11.4212 28.5595 11.0713 27.6786 11.0713H21.7665C22.01 11.7644 22.1429 12.5106 22.1429 13.2856C22.1449 14.92 21.5424 16.4974 20.4512 17.7141H21.0357Z" fill="white"/>
<path d="M24.1071 21.9836C24.2688 22.3733 24.3574 22.8029 24.3574 23.2502C24.3574 25.7213 23.341 27.7009 21.6736 29.0405C20.0329 30.358 17.8319 31.0002 15.5002 31.0002C13.1686 31.0002 10.9676 30.358 9.32679 29.0405C7.66165 27.7009 6.64308 25.7213 6.64308 23.2502C6.64191 22.8136 6.72702 22.3812 6.89353 21.9777C7.06003 21.5742 7.30464 21.2076 7.6133 20.8989C7.92195 20.5903 8.28857 20.3457 8.69207 20.1792C9.09557 20.0127 9.528 19.9276 9.96451 19.9287H21.0359C21.6938 19.9286 22.3369 20.1238 22.8837 20.4896C23.4305 20.8555 23.8563 21.3754 24.1071 21.9836Z" fill="white"/>
</svg>
