<svg width="31" height="30" viewBox="0 0 31 30" fill="none" xmlns="http://www.w3.org/2000/svg">
<path d="M30.3584 14.7542L16.2735 0.328544C16.172 0.224397 16.0516 0.14177 15.919 0.0853942C15.7864 0.0290184 15.6442 0 15.5006 0C15.3571 0 15.2149 0.0290184 15.0823 0.0853942C14.9497 0.14177 14.8292 0.224397 14.7278 0.328544L0.642868 14.7542C0.232527 15.1748 0 15.7461 0 16.3419C0 17.5791 0.981399 18.5849 2.18849 18.5849H3.67255V28.8785C3.67255 29.4988 4.16154 30 4.7668 30H13.3122V22.1493H17.142V30H26.2345C26.8397 30 27.3287 29.4988 27.3287 28.8785V18.5849H28.8128C29.3941 18.5849 29.9515 18.3501 30.3618 17.926C31.2133 17.0498 31.2133 15.6304 30.3584 14.7542Z" fill="#FFC703"/>
</svg>
