<svg width="326" height="221" viewBox="0 0 326 221" fill="none" xmlns="http://www.w3.org/2000/svg">
<g filter="url(#filter0_d)">
<path d="M70.8174 183.082V184.965H44.5996V183.082L52.8561 181.778V148.173H18.9613V181.778L27.2177 183.082V184.965H1V183.082L9.11156 181.778V116.741L1 115.437V113.554H27.2177V115.437L18.9613 116.741V146H52.8561V116.741L44.5996 115.437V113.554H70.8174V115.437L62.7058 116.741V181.778L70.8174 183.082Z" fill="white"/>
<path d="M106.687 176.129C105.142 179.219 102.921 181.633 100.024 183.372C97.1268 185.013 93.7952 185.834 90.0291 185.834C86.3596 185.834 83.3178 184.868 80.9036 182.937C78.586 180.909 77.4273 178.157 77.4273 174.681C77.4273 171.204 78.1515 168.452 79.6 166.424C83.6558 161.113 91.6225 158.457 103.5 158.457H106.687V149.767C106.687 143.2 103.693 139.917 97.7061 139.917C95.0023 139.917 92.7813 140.544 91.0431 141.8C89.4015 143.055 88.5806 144.504 88.5806 146.145C88.5806 147.787 89.3532 148.849 90.8982 149.332C90.8982 150.877 90.3188 152.229 89.16 153.388C88.0978 154.45 86.7942 154.981 85.2491 154.981C83.8006 154.981 82.497 154.45 81.3382 153.388C80.2759 152.229 79.7448 150.829 79.7448 149.187C79.7448 146.097 81.483 143.441 84.9594 141.22C88.4358 138.999 92.6847 137.889 97.7061 137.889C109.777 137.889 115.764 142.476 115.667 151.65V179.026C115.667 181.73 116.778 183.082 118.999 183.082C121.22 183.082 122.331 181.778 122.331 179.171H124.214C124.214 181.199 123.538 182.84 122.186 184.096C120.834 185.255 118.854 185.834 116.247 185.834C113.64 185.834 111.419 185.061 109.584 183.516C107.749 181.875 106.783 179.412 106.687 176.129ZM106.687 169.756V160.63H103.5C98.8649 160.63 94.954 161.741 91.7673 163.962C88.6772 166.183 87.1322 169.514 87.1322 173.956C87.1322 176.371 87.7598 178.254 89.0152 179.605C90.3671 180.957 92.3467 181.633 94.954 181.633C97.5613 181.633 100.072 180.571 102.486 178.447C104.9 176.322 106.301 173.425 106.687 169.756Z" fill="white"/>
<path d="M163.58 150.925C163.58 144.359 161.021 141.076 155.903 141.076C150.881 141.076 146.005 144.552 141.273 151.505V182.358L146.632 183.082V184.965H126.064V183.082L132.292 182.358V141.365L126.064 140.496V138.758H141.273V148.318C146.101 141.365 151.895 137.889 158.655 137.889C162.904 137.889 166.284 138.999 168.794 141.22C171.305 143.345 172.56 146.483 172.56 150.636V182.358L178.644 183.082V184.965H158.22V183.082L163.58 182.358V150.925Z" fill="white"/>
<path d="M194.612 169.901C190.653 170.19 188.673 171.735 188.673 174.536C188.673 175.888 189.446 176.95 190.991 177.722C192.536 178.398 194.467 178.736 196.785 178.736H211.415C216.146 178.736 219.719 179.702 222.133 181.633C224.644 183.468 225.899 186.558 225.899 190.904C225.899 196.601 223.92 201.381 219.961 205.244C216.098 209.106 210.545 211.038 203.303 211.038C196.061 211.038 190.605 209.879 186.935 207.561C183.266 205.34 181.431 202.347 181.431 198.581C181.431 196.36 182.203 194.428 183.748 192.787C185.293 191.145 187.418 190.324 190.122 190.324C190.605 190.324 191.715 190.469 193.453 190.759C191.618 192.69 190.701 195.104 190.701 198.001C190.701 200.995 191.715 203.602 193.743 205.823C195.867 208.141 199.537 209.3 204.751 209.3C209.966 209.3 214.36 207.803 217.933 204.809C221.602 201.816 223.437 198.436 223.437 194.67C223.437 192.063 222.761 190.179 221.409 189.021C220.057 187.958 217.643 187.427 214.167 187.427H196.785C188.383 187.427 184.183 184.482 184.183 178.592C184.183 175.888 184.907 173.715 186.356 172.073C187.804 170.335 189.784 169.176 192.294 168.597C187.659 165.507 185.342 161.113 185.342 155.416C185.342 149.718 187.032 145.373 190.411 142.379C193.888 139.386 198.137 137.889 203.158 137.889C208.276 137.889 212.477 139.193 215.76 141.8C218.078 141.703 219.768 141.22 220.83 140.351C221.989 139.386 222.568 138.323 222.568 137.165C222.568 136.006 222.278 135.137 221.699 134.557C221.119 133.978 220.443 133.688 219.671 133.688C219.671 132.143 220.202 130.888 221.264 129.922C222.327 128.86 223.63 128.329 225.175 128.329C226.72 128.329 228.024 128.812 229.086 129.777C230.148 130.743 230.679 132.288 230.679 134.412C230.679 136.537 229.617 138.517 227.493 140.351C225.465 142.09 222.133 143.103 217.498 143.393C220.395 146.387 221.795 150.346 221.699 155.271C221.699 160.099 219.961 164.058 216.484 167.148C213.104 170.142 208.759 171.639 203.448 171.639C200.068 171.639 197.123 171.059 194.612 169.901ZM213.298 156.864V152.519C213.298 143.828 210.014 139.482 203.448 139.482C196.978 139.482 193.743 143.828 193.743 152.519V156.864C193.743 161.016 194.515 164.251 196.061 166.569C197.702 168.887 200.165 170.045 203.448 170.045C206.731 170.045 209.194 168.887 210.835 166.569C212.477 164.251 213.298 161.016 213.298 156.864Z" fill="white"/>
<path d="M230.44 184.965V183.082L236.669 182.358V141.365L230.44 140.496V138.758H245.649V145.566C249.415 140.448 253.664 137.889 258.396 137.889C260.617 137.889 262.597 138.468 264.335 139.627C266.073 140.786 266.942 142.331 266.942 144.262C266.942 146.097 266.411 147.546 265.349 148.608C264.287 149.573 262.838 150.056 261.003 150.056C259.265 150.056 257.865 149.332 256.803 147.883C257.479 147.014 257.768 146.097 257.672 145.131C257.672 144.166 257.334 143.345 256.658 142.669C255.982 141.993 255.065 141.655 253.906 141.655C251.588 141.655 248.836 144.069 245.649 148.897V182.358L252.747 183.082V184.965H230.44Z" fill="white"/>
<path d="M316.14 138.903V140.496L310.056 142.814L289.922 201.043C288.764 204.52 287.267 207.03 285.432 208.575C283.694 210.217 281.231 211.038 278.045 211.038C274.858 211.038 272.299 210.265 270.368 208.72C268.533 207.175 267.616 205.292 267.616 203.071C267.616 200.85 268.147 199.208 269.209 198.146C270.271 197.084 271.768 196.553 273.699 196.553C275.727 196.553 277.224 197.519 278.19 199.45C277.32 200.609 276.886 201.816 276.886 203.071C276.886 204.423 277.272 205.485 278.045 206.258C278.817 207.03 279.783 207.417 280.942 207.417C283.742 207.417 285.915 205.292 287.46 201.043L292.819 185.544L272.106 141.51L266.167 140.496V138.903H288.329V140.496L282.1 141.655L297.02 173.522L307.739 142.814L299.917 140.496V138.903H316.14Z" fill="white"/>
<path fill-rule="evenodd" clip-rule="evenodd" d="M84.1675 94.7234C84.1675 93.2313 85.3771 92.0217 86.8692 92.0217H159.687C161.179 92.0217 162.388 93.2313 162.388 94.7234V118.996C162.388 120.488 161.179 121.698 159.687 121.698H86.8692C85.3771 121.698 84.1675 120.488 84.1675 118.996V94.7234ZM89.571 97.4252V116.294H156.985V97.4252H89.571Z" fill="white"/>
<path fill-rule="evenodd" clip-rule="evenodd" d="M138.448 49.5449C139.94 49.5449 141.15 50.7545 141.15 52.2466V94.7234C141.15 96.2156 139.94 97.4252 138.448 97.4252C136.956 97.4252 135.746 96.2156 135.746 94.7234V52.2466C135.746 50.7545 136.956 49.5449 138.448 49.5449Z" fill="white"/>
<path fill-rule="evenodd" clip-rule="evenodd" d="M117.21 67.7492C118.702 67.7492 119.911 68.9589 119.911 70.451V94.7234C119.911 96.2156 118.702 97.4252 117.21 97.4252C115.717 97.4252 114.508 96.2156 114.508 94.7234V70.451C114.508 68.9589 115.717 67.7492 117.21 67.7492Z" fill="white"/>
<path fill-rule="evenodd" clip-rule="evenodd" d="M103.635 8.52924C108.238 4.34471 114.936 1 123.278 1C131.619 1 138.317 4.34471 142.92 8.52924C145.217 10.6168 147.019 12.9369 148.261 15.204C148.989 16.534 149.558 17.908 149.898 19.2519C156.9 19.54 163.432 21.1545 168.43 24.6151C174.129 28.5604 177.558 34.7221 177.558 43.1445C177.558 51.6646 173.3 58.3545 169.271 62.787C167.241 65.0191 165.218 66.7383 163.701 67.9018C163.206 68.2809 162.763 68.6027 162.388 68.8657V94.7234C162.388 96.2156 161.179 97.4252 159.686 97.4252H86.8691C85.377 97.4252 84.1673 96.2156 84.1673 94.7234V68.8657C83.7924 68.6027 83.3494 68.2809 82.8549 67.9018C81.3374 66.7383 79.3141 65.0191 77.2848 62.787C73.2553 58.3545 68.9971 51.6646 68.9971 43.1445C68.9971 34.4891 73.3932 28.3867 79.34 24.5638C84.4855 21.256 90.81 19.6188 96.6523 19.2742C96.9916 17.9232 97.5625 16.5413 98.2949 15.204C99.5364 12.9369 101.339 10.6168 103.635 8.52924ZM88.2606 65.1011C89.0735 65.5895 89.5709 66.4685 89.5709 67.4169V92.0217H156.985V67.4169C156.985 66.4691 157.481 65.5906 158.293 65.102C158.294 65.1014 158.295 65.1008 158.296 65.1002L158.313 65.0901C158.326 65.0821 158.345 65.0703 158.37 65.0546C158.382 65.0468 158.396 65.0381 158.411 65.0285C158.503 64.9703 158.646 64.8783 158.832 64.7531C159.205 64.5026 159.752 64.1207 160.413 63.6135C161.74 62.5963 163.509 61.0918 165.272 59.1522C168.828 55.241 172.155 49.7946 172.155 43.1445C172.155 36.3966 169.516 31.939 165.354 29.0578C161.047 26.0758 154.839 24.6078 147.55 24.6078C146.058 24.6078 144.848 23.3982 144.848 21.9061C144.848 20.9974 144.483 19.555 143.521 17.7994C142.582 16.0842 141.161 14.2325 139.285 12.5275C135.545 9.12691 130.106 6.40351 123.278 6.40351C116.449 6.40351 111.011 9.12691 107.27 12.5275C105.395 14.2325 103.974 16.0842 103.034 17.7994C102.073 19.555 101.707 20.9974 101.707 21.9061C101.707 23.3982 100.497 24.6078 99.0053 24.6078C93.3221 24.6078 87.0358 26.0402 82.262 29.1091C77.5896 32.1128 74.4006 36.6295 74.4006 43.1445C74.4006 49.7946 77.7275 55.241 81.2831 59.1522C83.0464 61.0918 84.8157 62.5963 86.1426 63.6135C86.804 64.1207 87.3502 64.5026 87.7233 64.7531C87.9097 64.8783 88.0525 64.9703 88.1443 65.0285C88.1902 65.0576 88.2234 65.0782 88.2428 65.0901L88.2591 65.1002C88.2596 65.1005 88.2601 65.1008 88.2606 65.1011Z" fill="white"/>
</g>
<defs>
<filter id="filter0_d" x="0" y="0" width="325.14" height="220.038" filterUnits="userSpaceOnUse" color-interpolation-filters="sRGB">
<feFlood flood-opacity="0" result="BackgroundImageFix"/>
<feColorMatrix in="SourceAlpha" type="matrix" values="0 0 0 0 0 0 0 0 0 0 0 0 0 0 0 0 0 0 127 0" result="hardAlpha"/>
<feOffset dx="4" dy="4"/>
<feGaussianBlur stdDeviation="2.5"/>
<feComposite in2="hardAlpha" operator="out"/>
<feColorMatrix type="matrix" values="0 0 0 0 0 0 0 0 0 0 0 0 0 0 0 0 0 0 0.5 0"/>
<feBlend mode="normal" in2="BackgroundImageFix" result="effect1_dropShadow"/>
<feBlend mode="normal" in="SourceGraphic" in2="effect1_dropShadow" result="shape"/>
</filter>
</defs>
</svg>
