<svg width="23" height="22" viewBox="0 0 23 22" fill="none" xmlns="http://www.w3.org/2000/svg">
<path d="M21.3213 8.04257L15.0259 7.1301L12.2117 1.44017C12.1348 1.28438 12.0083 1.15827 11.8521 1.08161C11.4604 0.888733 10.9843 1.04947 10.7884 1.44017L7.97423 7.1301L1.67884 8.04257C1.50528 8.0673 1.34659 8.1489 1.2251 8.27254C1.07822 8.4231 0.99728 8.62566 1.00007 8.8357C1.00286 9.04575 1.08915 9.2461 1.23997 9.39272L5.79477 13.8215L4.71868 20.0753C4.69345 20.2207 4.70959 20.3704 4.76528 20.5071C4.82096 20.6439 4.91397 20.7624 5.03374 20.8492C5.15352 20.9359 5.29528 20.9875 5.44294 20.998C5.59059 21.0085 5.73825 20.9775 5.86916 20.9086L11.5001 17.9561L17.1309 20.9086C17.2847 20.9902 17.4632 21.0174 17.6343 20.9877C18.0657 20.9135 18.3558 20.5055 18.2814 20.0753L17.2053 13.8215L21.7601 9.39272C21.8841 9.27156 21.9659 9.1133 21.9907 8.9402C22.0577 8.50746 21.7552 8.10686 21.3213 8.04257Z" stroke="#FFC703" stroke-width="2"/>
</svg>
