<svg width="41" height="43" viewBox="0 0 41 43" fill="none" xmlns="http://www.w3.org/2000/svg">
<path d="M0.0577843 15.4101C0.974684 12.579 2.48092 9.97414 4.4773 7.76718C4.64231 7.58483 4.85779 7.45563 5.09637 7.39598C5.33496 7.33633 5.58589 7.34894 5.8173 7.43218L10.5768 9.13448C10.9156 9.25547 11.2767 9.30133 11.635 9.2689C11.9933 9.23646 12.3403 9.12649 12.6519 8.94662C12.9635 8.76675 13.2322 8.52127 13.4395 8.2272C13.6468 7.93314 13.7877 7.59751 13.8523 7.24359L14.7581 2.26574C14.8019 2.02342 14.9169 1.79964 15.0884 1.62288C15.2598 1.44612 15.48 1.32438 15.7209 1.27315C18.6288 0.653741 21.6346 0.653741 24.5425 1.27315C24.7834 1.32438 25.0036 1.44612 25.1751 1.62288C25.3465 1.79964 25.4615 2.02342 25.5054 2.26574L26.4136 7.24359C26.4783 7.59751 26.6191 7.93314 26.8264 8.2272C27.0337 8.52127 27.3024 8.76675 27.614 8.94662C27.9256 9.12649 28.2726 9.23646 28.6309 9.2689C28.9892 9.30133 29.3503 9.25547 29.6891 9.13448L34.4511 7.43218C34.6824 7.34977 34.933 7.33784 35.1711 7.39792C35.4092 7.45799 35.6241 7.58737 35.7886 7.76966C37.7838 9.97613 39.2892 12.5801 40.2056 15.4101C40.2813 15.6439 40.2858 15.8949 40.2187 16.1312C40.1515 16.3676 40.0157 16.5787 39.8285 16.7377L35.9698 20.0133C35.6956 20.2462 35.4755 20.536 35.3244 20.8625C35.1734 21.189 35.0952 21.5444 35.0952 21.9042C35.0952 22.2639 35.1734 22.6193 35.3244 22.9458C35.4755 23.2723 35.6956 23.5621 35.9698 23.7951L39.8285 27.0706C40.0157 27.2297 40.1515 27.4408 40.2187 27.6771C40.2858 27.9135 40.2813 28.1644 40.2056 28.3982C39.2895 31.2292 37.7841 33.834 35.7886 36.0412C35.6236 36.2235 35.4081 36.3527 35.1695 36.4124C34.931 36.472 34.68 36.4594 34.4486 36.3762L29.6891 34.6739C29.3503 34.5529 28.9892 34.507 28.6309 34.5394C28.2726 34.5719 27.9256 34.6819 27.614 34.8617C27.3024 35.0416 27.0337 35.2871 26.8264 35.5811C26.6191 35.8752 26.4783 36.2108 26.4136 36.5648L25.5029 41.5451C25.4587 41.7866 25.3439 42.0096 25.173 42.1859C25.002 42.3621 24.7826 42.4837 24.5425 42.5352C21.6346 43.1547 18.6288 43.1547 15.7209 42.5352C15.48 42.484 15.2598 42.3622 15.0884 42.1855C14.9169 42.0087 14.8019 41.7849 14.7581 41.5426L13.8523 36.5648C13.7877 36.2108 13.6468 35.8752 13.4395 35.5811C13.2322 35.2871 12.9635 35.0416 12.6519 34.8617C12.3403 34.6819 11.9933 34.5719 11.635 34.5394C11.2767 34.507 10.9156 34.5529 10.5768 34.6739L5.81482 36.3762C5.5835 36.4586 5.33293 36.4705 5.09484 36.4104C4.85674 36.3503 4.64182 36.221 4.4773 36.0387C2.48205 33.8323 0.976679 31.2283 0.0602659 28.3982C-0.015379 28.1644 -0.0199144 27.9135 0.047235 27.6771C0.114384 27.4408 0.250195 27.2297 0.437451 27.0706L4.29615 23.7951C4.57027 23.5621 4.79046 23.2723 4.94146 22.9458C5.09247 22.6193 5.17068 22.2639 5.17068 21.9042C5.17068 21.5444 5.09247 21.189 4.94146 20.8625C4.79046 20.536 4.57027 20.2462 4.29615 20.0133L0.437451 16.7377C0.250195 16.5787 0.114384 16.3676 0.047235 16.1312C-0.0199144 15.8949 -0.015379 15.6439 0.0602659 15.4101H0.0577843ZM15.17 21.9042C15.17 23.2204 15.6929 24.4828 16.6236 25.4135C17.5543 26.3442 18.8167 26.8671 20.133 26.8671C21.4492 26.8671 22.7116 26.3442 23.6423 25.4135C24.573 24.4828 25.0959 23.2204 25.0959 21.9042C25.0959 20.5879 24.573 19.3256 23.6423 18.3948C22.7116 17.4641 21.4492 16.9412 20.133 16.9412C18.8167 16.9412 17.5543 17.4641 16.6236 18.3948C15.6929 19.3256 15.17 20.5879 15.17 21.9042Z" fill="white"/>
</svg>
