<svg width="38" height="30" viewBox="0 0 38 30" fill="none" xmlns="http://www.w3.org/2000/svg">
<path d="M38 12.3215V13.393C38 14.2806 37.2911 15.0001 36.4167 15.0001H35.8889L34.1662 27.2403C33.9433 28.8238 32.6072 30 31.0314 30H6.96865C5.39277 30 4.0567 28.8238 3.83378 27.2403L2.11111 15.0001H1.58333C0.708872 15.0001 0 14.2806 0 13.393V12.3215C0 11.4339 0.708872 10.7144 1.58333 10.7144H6.02597L13.0705 0.882707C13.7563 -0.074341 15.0765 -0.286014 16.0195 0.410075C16.9624 1.10616 17.1709 2.44631 16.4851 3.40343L11.2467 10.7144H26.7533L21.5149 3.40336C20.8291 2.44631 21.0376 1.1061 21.9806 0.410009C22.9234 -0.286081 24.2438 -0.0744749 24.9296 0.88264L31.974 10.7144H36.4167C37.2911 10.7144 38 11.4339 38 12.3215ZM20.5833 24.1072V16.6072C20.5833 15.7196 19.8745 15.0001 19 15.0001C18.1255 15.0001 17.4167 15.7196 17.4167 16.6072V24.1072C17.4167 24.9948 18.1255 25.7143 19 25.7143C19.8745 25.7143 20.5833 24.9948 20.5833 24.1072ZM27.9722 24.1072V16.6072C27.9722 15.7196 27.2633 15.0001 26.3889 15.0001C25.5144 15.0001 24.8056 15.7196 24.8056 16.6072V24.1072C24.8056 24.9948 25.5144 25.7143 26.3889 25.7143C27.2633 25.7143 27.9722 24.9948 27.9722 24.1072ZM13.1944 24.1072V16.6072C13.1944 15.7196 12.4856 15.0001 11.6111 15.0001C10.7366 15.0001 10.0278 15.7196 10.0278 16.6072V24.1072C10.0278 24.9948 10.7366 25.7143 11.6111 25.7143C12.4856 25.7143 13.1944 24.9948 13.1944 24.1072Z" fill="white"/>
</svg>
