<svg width="35" height="35" viewBox="0 0 35 35" fill="none" xmlns="http://www.w3.org/2000/svg">
<path d="M17.5 0C8.01325 0 0 8.01325 0 17.5C0 26.9867 8.01325 35 17.5 35C26.9867 35 35 26.9867 35 17.5C35 8.01325 26.9867 0 17.5 0ZM17.5 8.75C20.5222 8.75 22.75 10.976 22.75 14C22.75 17.024 20.5222 19.25 17.5 19.25C14.4795 19.25 12.25 17.024 12.25 14C12.25 10.976 14.4795 8.75 17.5 8.75ZM8.5645 25.851C10.1342 23.541 12.7522 22.001 15.75 22.001H19.25C22.2495 22.001 24.8658 23.541 26.4355 25.851C24.199 28.245 21.0263 29.75 17.5 29.75C13.9738 29.75 10.801 28.245 8.5645 25.851Z" fill="#FFCE22"/>
</svg>
