<svg width="21" height="20" viewBox="0 0 21 20" fill="none" xmlns="http://www.w3.org/2000/svg">
<path d="M20.3213 7.04257L14.0259 6.1301L11.2117 0.440169C11.1348 0.284382 11.0083 0.158269 10.8521 0.0816118C10.4604 -0.111267 9.98432 0.0494654 9.78844 0.440169L6.97423 6.1301L0.678842 7.04257C0.505279 7.0673 0.346592 7.1489 0.225098 7.27254C0.0782178 7.4231 -0.00271976 7.62566 6.97872e-05 7.8357C0.00285933 8.04575 0.0891477 8.24609 0.239975 8.39272L4.79477 12.8215L3.71868 19.0753C3.69345 19.2207 3.70959 19.3703 3.76528 19.5071C3.82096 19.6439 3.91397 19.7624 4.03374 19.8492C4.15352 19.9359 4.29528 19.9875 4.44294 19.998C4.59059 20.0085 4.73825 19.9775 4.86916 19.9086L10.5001 16.9561L16.1309 19.9086C16.2847 19.9902 16.4632 20.0174 16.6343 19.9877C17.0657 19.9135 17.3558 19.5055 17.2814 19.0753L16.2053 12.8215L20.7601 8.39272C20.8841 8.27156 20.9659 8.1133 20.9907 7.9402C21.0577 7.50746 20.7552 7.10686 20.3213 7.04257Z" fill="#FFC703"/>
</svg>
